# xmcd
#
# Track frame offsets: 
#        150
#        9627
#        33197
#        50972
#        75382
#        89537
#        99805
#        127522
#        131740
#        142110
#        183632
#        188935
#        197602
#        208022
#        223852
#        240905
#
# Disc length: 3508 seconds
#
# Revision: 2
# Processed by: cddbd v1.5.2PL0 Copyright (c) Steve Scherf et al.
# Submitted via: ExactAudioCopyFreeDBPlugin 1.0
#
DISCID=dd0db210
DTITLE=James Brown - Soul and Funky
DYEAR=1900
DGENRE=Soul
TTITLE0=Turn It Loose
TTITLE1=It's Too Funky In Here
TTITLE2=Gonna Have A Funky Good Time
TTITLE3=Try Me
TTITLE4=Get On The Good Foot
TTITLE5=Get Up Off That Thang
TTITLE6=Georgia On My Mind
TTITLE7=Hot Pants
TTITLE8=I Got The Feeling
TTITLE9=It's A  Man's, Man's World
TTITLE10=Cold Sweet
TTITLE11=I Can't Stand It
TTITLE12=Papa's Got A Brand New Bag
TTITLE13=I Feel Good
TTITLE14=Please, Please, Please
TTITLE15=Jam (1980)
EXTD=
EXTT0=
EXTT1=
EXTT2=
EXTT3=
EXTT4=
EXTT5=
EXTT6=
EXTT7=
EXTT8=
EXTT9=
EXTT10=
EXTT11=
EXTT12=
EXTT13=
EXTT14=
EXTT15=
PLAYORDER=
